<svg height="512" viewBox="0 0 64 64" width="512" xmlns="http://www.w3.org/2000/svg"><g id="calculator_&#xB7;_finance_&#xB7;_business_&#xB7;_calculation_&#xB7;_money" data-name="calculator &#xB7; finance &#xB7; business &#xB7; calculation &#xB7; money"><path d="m57 57h-46v-44l10-10h36z" fill="#ffdaaa"/><path d="m53 3v36a18 18 0 0 1 -18 18h22v-54z" fill="#ffc477"/><path d="m57 13a4 4 0 0 1 4 4v2a0 0 0 0 1 0 0h-8a0 0 0 0 1 0 0v-2a4 4 0 0 1 4-4z" fill="#ed1c24"/><path d="m54 49h6v4h-6z" fill="#ed1c24"/><path d="m57 60-2-7h4z" fill="#00479b"/><path d="m39 33a8.989 8.989 0 0 0 -8 4.89v8.22a9 9 0 1 0 8-13.11z" fill="#ff9811"/><path d="m21 12v-8.93l-9.97 9.93h8.97a1 1 0 0 0 1-1z" fill="#ff5023"/><circle cx="29" cy="17" fill="#9bc9ff" r="1"/><circle cx="34" cy="17" fill="#9bc9ff" r="1"/><rect fill="#006df0" height="40" rx="4" width="28" x="3" y="21"/><path d="m27 21h-2a4 4 0 0 1 4 4v32a4 4 0 0 1 -4 4h2a4 4 0 0 0 4-4v-32a4 4 0 0 0 -4-4z" fill="#005ece"/><g fill="#ed1c24"><path d="m7 53h4v4h-4z"/><path d="m7 45h4v4h-4z"/><path d="m7 37h4v4h-4z"/><path d="m15 37h4v4h-4z"/><path d="m23 37h4v4h-4z"/><path d="m23 45h4v4h-4z"/><path d="m15 45h4v4h-4z"/><path d="m15 53h4v4h-4z"/><path d="m23 53h4v4h-4z"/></g><path d="m7 25h20v8h-20z" fill="#5eac24"/><circle cx="28.556" cy="17" fill="#4e901e" r="1.556"/><circle cx="33.444" cy="17" fill="#4e901e" r="1.556"/><path d="m35.613 8h-7.355l-.266-2.124a1 1 0 0 0 -.992-.876h-2a1 1 0 0 0 0 2h1.117l.766 6.124a1 1 0 0 0 .992.876h6.4a1 1 0 0 0 .949-.684l1.333-4a1 1 0 0 0 -.944-1.316z" fill="#5eac24"/><path d="m40 45h-2a1 1 0 0 1 -1-1 1 1 0 0 0 -2 0 3 3 0 0 0 2.988 3l-.013.988a1 1 0 0 0 .987 1.012h.014a1 1 0 0 0 1-.987l.013-1.013h.011a3 3 0 0 0 0-6h-2a1 1 0 0 1 0-2h2a1 1 0 0 1 1 1 1 1 0 0 0 2 0 3 3 0 0 0 -3-3v-1a1 1 0 0 0 -2 0v1a3 3 0 0 0 0 6h2a1 1 0 0 1 0 2z" fill="#f1f2f2"/><path d="m50 7h-9a1 1 0 0 0 0 2h9a1 1 0 0 0 0-2z" fill="#ff5023"/><path d="m51 12a1 1 0 0 0 -1-1h-9a1 1 0 0 0 0 2h9a1 1 0 0 0 1-1z" fill="#ff5023"/><path d="m49 15h-10a1 1 0 0 0 0 2h10a1 1 0 0 0 0-2z" fill="#ff5023"/><path d="m50 20a1 1 0 0 0 -1-1h-10a1 1 0 0 0 0 2h10a1 1 0 0 0 1-1z" fill="#ff5023"/><path d="m53 22h-1a3 3 0 0 0 -3 3v8a1 1 0 0 0 2 0v-8a1 1 0 0 1 1-1h1a1 1 0 0 0 0-2z" fill="#00479b"/><path d="m46 23h-11a1 1 0 0 0 0 2h11a1 1 0 0 0 0-2z" fill="#ff5023"/><path d="m46 27h-11a1 1 0 0 0 0 2h11a1 1 0 0 0 0-2z" fill="#ff5023"/><path d="m53 19h8v4h-8z" fill="#ffcd00"/><path d="m53 23h8v26h-8z" fill="#006df0"/></g></svg>